Coordinates
version=1
nRows=13
nColumns=36
inDegrees=yes

Units are S.I. units (second, meters, Newtons, ...)
If the header above contains a line with 'inDegrees', this indicates whether rotational values are in degrees (yes) or radians (no).

endheader
time	pelvis_tilt	pelvis_list	pelvis_rotation	pelvis_tx	pelvis_ty	pelvis_tz	hip_flexion_r	hip_adduction_r	hip_rotation_r	knee_angle_r	knee_angle_r_beta	ankle_angle_r	subtalar_angle_r	mtp_angle_r	hip_flexion_l	hip_adduction_l	hip_rotation_l	knee_angle_l	knee_angle_l_beta	ankle_angle_l	subtalar_angle_l	mtp_angle_l	lumbar_extension	lumbar_bending	lumbar_rotation	arm_flex_r	arm_add_r	arm_rot_r	elbow_flex_r	pro_sup_r	arm_flex_l	arm_add_l	arm_rot_l	elbow_flex_l	pro_sup_l
      0.75000000	      1.05838166	      0.94841343	     -1.31324929	      0.78787842	      1.13312827	     -0.17415987	      1.75004318	     -0.24549168	     -1.32643195	     52.97340604	      0.92456035	    -14.15737080	     -4.75702932	     -6.52222179	     19.11322633	      5.55709808	     -5.00590527	     21.19717966	      0.36996058	      1.90471158	     -7.49186827	     -6.52222179	    -11.75298820	     -1.16792013	     -0.86615150	    -12.47286407	     -6.42326340	    -13.28045675	     46.00561519	    110.92787561	    -10.09823936	     -2.73291527	    -15.94715427	     44.10712171	    108.48853849
      0.76000000	      1.31731821	      0.83008542	     -1.45323121	      0.79850076	      1.13521915	     -0.17420621	      3.00973430	     -0.19517133	     -0.78317262	     55.30068869	      0.96517910	    -14.71608303	     -4.95915174	     -6.52557457	     18.12016718	      5.44937395	     -5.00226056	     21.05400656	      0.36746174	      2.17044818	     -7.39650794	     -6.52557457	    -12.11288590	     -1.12650395	     -1.05008194	    -12.50906468	     -6.40230546	    -13.12253684	     45.89446099	    110.94315410	    -10.01655557	     -2.84098353	    -15.87063282	     44.20197558	    108.52929436
      0.77000000	      1.10612549	      1.22362345	     -1.89765396	      0.80923445	      1.13661192	     -0.17399422	      4.94362661	     -0.70563456	     -0.03140258	     57.76058918	      1.00811246	    -15.20587113	     -5.88116694	     -6.53620581	     17.51973871	      5.80176800	     -5.40278816	     20.62630104	      0.35999687	      2.77333421	     -7.19042838	     -6.53620581	    -11.77372891	     -1.78625160	     -0.90799062	    -12.74813127	     -6.43519173	    -12.46459572	     45.61446759	    111.01562242	    -10.18906126	     -3.07092991	    -15.65576222	     44.63118706	    108.66324213
      0.78000000	      1.15190087	      1.26856514	     -2.05421602	      0.81977704	      1.13848024	     -0.17407578	      6.43645065	     -0.80501160	      0.44238463	     59.78269275	      1.04340482	    -14.98832897	     -6.68525818	     -6.54492855	     16.68373169	      5.87681422	     -5.41435052	     20.30181303	      0.35433348	      3.16538667	     -7.02958092	     -6.54492855	    -11.80180868	     -1.95224356	     -1.12427674	    -12.82279743	     -6.47853670	    -11.99019987	     45.42073958	    111.06908472	    -10.25557031	     -3.25856877	    -15.50840084	     44.85778440	    108.75220486
      0.79000000	      1.21008764	      1.27875819	     -2.12914594	      0.83030181	      1.14040802	     -0.17432344	      7.86276968	     -0.89317944	      0.75547007	     61.54818084	      1.07421840	    -14.38121763	     -7.57391788	     -6.55411543	     15.81699715	      5.94165013	     -5.36398824	     19.94133127	      0.34804189	      3.49461306	     -6.85535162	     -6.55411543	    -11.83176409	     -2.06961442	     -1.40202966	    -12.91094104	     -6.54117241	    -11.51114176	     45.24198825	    111.12847531	    -10.32441018	     -3.41775493	    -15.37560677	     45.10627827	    108.83749180
      0.80000000	      1.27394621	      1.26009266	     -2.14925434	      0.84074846	      1.14238136	     -0.17467061	      9.23187659	     -0.94384196	      1.01710216	     63.05353944	      1.10049187	    -13.55005696	     -8.54142741	     -6.56326262	     14.91770925	      5.99383556	     -5.26619226	     19.51946966	      0.34067901	      3.80117874	     -6.66771302	     -6.56326262	    -11.87971401	     -2.12284223	     -1.72635186	    -12.99511579	     -6.59044751	    -11.07547912	     45.11571707	    111.19074936	    -10.38036870	     -3.56169086	    -15.27920283	     45.36281244	    108.91276092
      0.81000000	      1.34946201	      1.20545747	     -2.14665677	      0.85110238	      1.14438930	     -0.17507604	     10.54675766	     -0.96026529	      1.22515494	     64.29854685	      1.12222135	    -12.69595633	     -9.54964140	     -6.57166686	     13.98125776	      6.00981616	     -5.16855741	     19.04396984	      0.33237998	      4.07631931	     -6.45021679	     -6.57166686	    -11.93913719	     -2.12498399	     -2.05874974	    -13.09541947	     -6.62720704	    -10.72475000	     45.05118810	    111.25039104	    -10.41979376	     -3.68295582	    -15.21786545	     45.62750633	    108.97602972
      0.82000000	      1.41635815	      1.14123939	     -2.13914979	      0.86137165	      1.14637249	     -0.17549523	     11.83188084	     -0.96486958	      1.40907413	     65.28921249	      1.13951172	    -11.91383403	    -10.61216848	     -6.57940168	     13.02705292	      6.01086158	     -5.10603288	     18.50246404	      0.32292892	      4.33638564	     -6.18674989	     -6.57940168	    -12.00373964	     -2.11159670	     -2.37337299	    -13.21813524	     -6.64922772	    -10.44972561	     45.04959615	    111.30745426	    -10.43915256	     -3.78596398	    -15.17768058	     45.92783339	    109.03281065
      0.83000000	      1.48034095	      1.05538794	     -2.14377653	      0.87158616	      1.14830830	     -0.17590270	     13.07831827	     -0.92239283	      1.62603968	     66.02557154	      1.15236361	    -11.27853188	    -11.64427794	     -6.58553960	     12.05195665	      5.98426588	     -5.07681308	     17.90572042	      0.31251378	      4.57119835	     -5.89566304	     -6.58553960	    -12.06132575	     -2.07009641	     -2.65036303	    -13.36314298	     -6.64993239	    -10.27631288	     45.11106489	    111.35327529	    -10.47311179	     -3.87590216	    -15.15139104	     46.22366645	    109.07886050
      0.84000000	      1.53948694	      1.00597678	     -2.13961676	      0.88169288	      1.15013473	     -0.17634538	     14.28989497	     -0.92317134	      1.81886108	     66.52770432	      1.16112748	    -10.75200419	    -12.77818584	     -6.59199086	     11.06833648	      5.99457862	     -5.11279398	     17.25998072	      0.30124349	      4.81033277	     -5.53508751	     -6.59199086	    -12.12355836	     -2.05701793	     -2.88507225	    -13.53553759	     -6.64173285	    -10.14369240	     45.22165509	    111.39885203	    -10.46541706	     -3.95519628	    -15.13070604	     46.62342317	    109.12993889
      0.85000000	      1.70295125	      0.93215573	     -2.13601499	      0.89173518	      1.15196710	     -0.17670506	     15.33036404	     -0.87987123	      1.97610950	     66.74461076	      1.16491322	    -10.92744518	    -14.53380907	     -6.61592353	      9.98930258	      5.94706886	     -5.34514791	     16.64682700	      0.29054194	      5.22183869	     -4.79530489	     -6.61592353	    -12.34354126	     -2.04692637	     -3.16087693	    -13.67133151	     -6.66383305	    -10.01759594	     45.39932307	    111.49757944	    -10.54960559	     -4.04268568	    -15.25204820	     47.31798203	    109.21064596
      0.86000000	      1.70135372	      0.86997860	     -2.13968381	      0.90165500	      1.15349806	     -0.17714952	     16.50296319	     -0.83009287	      2.19818640	     66.77079497	      1.16537022	    -10.38698732	    -15.49714613	     -6.62325570	      9.06111075	      5.94798220	     -5.37676644	     15.94552251	      0.27830187	      5.42999463	     -4.44076595	     -6.62325570	    -12.35880660	     -1.99653997	     -3.28816837	    -13.87527714	     -6.59695908	    -10.02040509	     45.53217218	    111.52119786	    -10.46384225	     -4.06451612	    -15.23022325	     47.67059533	    109.24905286
      0.87000000	      1.69135959	      0.76715996	     -2.10531358	      0.91154957	      1.15484669	     -0.17761565	     17.61708583	     -0.73866858	      2.37699747	     66.54539528	      1.16143625	     -9.93602301	    -16.27456023	     -6.62771291	      8.15143184	      5.90292201	     -5.48370996	     15.25305876	      0.26621610	      5.62712762	     -4.15862289	     -6.62771291	    -12.34732510	     -1.88455261	     -3.46476563	    -14.05376569	     -6.57617401	    -10.08818726	     45.68555343	    111.53048475	    -10.38983840	     -4.11395800	    -15.18558973	     48.03493482	    109.28654848
